<svg width="118" height="137" viewBox="0 0 118 137" fill="none" xmlns="http://www.w3.org/2000/svg">
<path d="M116 60C116 75.464 102.964 88.5 87.5 88.5C85.7934 88.5 84.5 88 83 87.5549C83 80 83.2403 76.0852 80.5 74.5C77.478 72.7518 75.5 74 66.1412 77.5C62.2985 72.7064 60 66.6216 60 60C60 44.536 72.536 32 88 32C103.464 32 116 44.536 116 60Z" fill="#5AB352"/>
<g filter="url(#filter0_d_41_220)">
<path d="M14.16 123.252C12.408 123.252 10.824 122.952 9.408 122.352C8.016 121.752 6.912 120.888 6.096 119.76C5.28 118.632 4.86 117.3 4.836 115.764H10.236C10.308 116.796 10.668 117.612 11.316 118.212C11.988 118.812 12.9 119.112 14.052 119.112C15.228 119.112 16.152 118.836 16.824 118.284C17.496 117.708 17.832 116.964 17.832 116.052C17.832 115.308 17.604 114.696 17.148 114.216C16.692 113.736 16.116 113.364 15.42 113.1C14.748 112.812 13.812 112.5 12.612 112.164C10.98 111.684 9.648 111.216 8.616 110.76C7.608 110.28 6.732 109.572 5.988 108.636C5.268 107.676 4.908 106.404 4.908 104.82C4.908 103.332 5.28 102.036 6.024 100.932C6.768 99.828 7.812 98.988 9.156 98.412C10.5 97.812 12.036 97.512 13.764 97.512C16.356 97.512 18.456 98.148 20.064 99.42C21.696 100.668 22.596 102.42 22.764 104.676H17.22C17.172 103.812 16.8 103.104 16.104 102.552C15.432 101.976 14.532 101.688 13.404 101.688C12.42 101.688 11.628 101.94 11.028 102.444C10.452 102.948 10.164 103.68 10.164 104.64C10.164 105.312 10.38 105.876 10.812 106.332C11.268 106.764 11.82 107.124 12.468 107.412C13.14 107.676 14.076 107.988 15.276 108.348C16.908 108.828 18.24 109.308 19.272 109.788C20.304 110.268 21.192 110.988 21.936 111.948C22.68 112.908 23.052 114.168 23.052 115.728C23.052 117.072 22.704 118.32 22.008 119.472C21.312 120.624 20.292 121.548 18.948 122.244C17.604 122.916 16.008 123.252 14.16 123.252ZM52.1895 102.768C54.6375 102.768 56.6055 103.524 58.0935 105.036C59.6055 106.524 60.3615 108.612 60.3615 111.3V123H55.3215V111.984C55.3215 110.424 54.9255 109.236 54.1335 108.42C53.3415 107.58 52.2615 107.16 50.8935 107.16C49.5255 107.16 48.4335 107.58 47.6175 108.42C46.8255 109.236 46.4295 110.424 46.4295 111.984V123H41.3895V111.984C41.3895 110.424 40.9935 109.236 40.2015 108.42C39.4095 107.58 38.3295 107.16 36.9615 107.16C35.5695 107.16 34.4655 107.58 33.6495 108.42C32.8575 109.236 32.4615 110.424 32.4615 111.984V123H27.4215V103.056H32.4615V105.468C33.1095 104.628 33.9375 103.968 34.9455 103.488C35.9775 103.008 37.1055 102.768 38.3295 102.768C39.8895 102.768 41.2815 103.104 42.5055 103.776C43.7295 104.424 44.6775 105.36 45.3495 106.584C45.9975 105.432 46.9335 104.508 48.1575 103.812C49.4055 103.116 50.7495 102.768 52.1895 102.768ZM63.8482 112.956C63.8482 110.94 64.2442 109.152 65.0362 107.592C65.8522 106.032 66.9442 104.832 68.3122 103.992C69.7042 103.152 71.2522 102.732 72.9562 102.732C74.4442 102.732 75.7402 103.032 76.8442 103.632C77.9722 104.232 78.8722 104.988 79.5442 105.9V103.056H84.6202V123H79.5442V120.084C78.8962 121.02 77.9962 121.8 76.8442 122.424C75.7162 123.024 74.4082 123.324 72.9202 123.324C71.2402 123.324 69.7042 122.892 68.3122 122.028C66.9442 121.164 65.8522 119.952 65.0362 118.392C64.2442 116.808 63.8482 114.996 63.8482 112.956ZM79.5442 113.028C79.5442 111.804 79.3042 110.76 78.8242 109.896C78.3442 109.008 77.6962 108.336 76.8802 107.88C76.0642 107.4 75.1882 107.16 74.2522 107.16C73.3162 107.16 72.4522 107.388 71.6602 107.844C70.8682 108.3 70.2202 108.972 69.7162 109.86C69.2362 110.724 68.9962 111.756 68.9962 112.956C68.9962 114.156 69.2362 115.212 69.7162 116.124C70.2202 117.012 70.8682 117.696 71.6602 118.176C72.4762 118.656 73.3402 118.896 74.2522 118.896C75.1882 118.896 76.0642 118.668 76.8802 118.212C77.6962 117.732 78.3442 117.06 78.8242 116.196C79.3042 115.308 79.5442 114.252 79.5442 113.028ZM94.5826 106.152C95.2306 105.096 96.0706 104.268 97.1026 103.668C98.1586 103.068 99.3586 102.768 100.703 102.768V108.06H99.3706C97.7866 108.06 96.5866 108.432 95.7706 109.176C94.9786 109.92 94.5826 111.216 94.5826 113.064V123H89.5426V103.056H94.5826V106.152ZM109.965 107.196V116.844C109.965 117.516 110.121 118.008 110.433 118.32C110.769 118.608 111.321 118.752 112.089 118.752H114.429V123H111.261C107.013 123 104.889 120.936 104.889 116.808V107.196H102.513V103.056H104.889V98.124H109.965V103.056H114.429V107.196H109.965Z" fill="#454545"/>
</g>
<g filter="url(#filter1_d_41_220)">
<path d="M46.24 48.4C44.8 45.6267 42.8 43.5467 40.24 42.16C37.68 40.72 34.72 40 31.36 40C27.68 40 24.4 40.8267 21.52 42.48C18.64 44.1333 16.3733 46.48 14.72 49.52C13.12 52.56 12.32 56.08 12.32 60.08C12.32 64.08 13.12 67.6267 14.72 70.72C16.3733 73.76 18.64 76.1067 21.52 77.76C24.4 79.4133 27.68 80.24 31.36 80.24C36.32 80.24 40.3467 78.8533 43.44 76.08C46.5333 73.3067 48.4267 69.5467 49.12 64.8H28.24V57.52H58.88V64.64C58.2933 68.96 56.7467 72.9333 54.24 76.56C51.7867 80.1867 48.56 83.0933 44.56 85.28C40.6133 87.4133 36.2133 88.48 31.36 88.48C26.1333 88.48 21.36 87.28 17.04 84.88C12.72 82.4267 9.28 79.04 6.72 74.72C4.21333 70.4 2.96 65.52 2.96 60.08C2.96 54.64 4.21333 49.76 6.72 45.44C9.28 41.12 12.72 37.76 17.04 35.36C21.4133 32.9067 26.1867 31.68 31.36 31.68C37.28 31.68 42.5333 33.1467 47.12 36.08C51.76 38.96 55.12 43.0667 57.2 48.4H46.24Z" fill="#2F2F2F"/>
</g>
<g filter="url(#filter2_d_41_220)">
<path d="M88.158 32.0004C73.0427 31.9154 60.4477 44.1304 60.012 59.3271C59.9096 62.8857 60.4639 66.3016 61.5624 69.46C62.3638 71.7649 65.0451 72.7817 67.1758 71.6109C68.8788 70.6748 69.6341 68.6393 68.9982 66.7951C68.2815 64.7162 67.8918 62.483 67.8918 60.1601C67.8918 48.6683 77.4136 39.4164 88.9523 39.953C99.2547 40.4314 107.613 48.844 108.085 59.2061C108.563 69.6675 101.141 78.4802 91.3063 80.1171C89.4002 80.4344 87.9978 82.0845 87.9978 84.0287C87.9978 86.4692 90.1711 88.3421 92.5651 87.9473C105.859 85.7545 116 74.1472 116 60.1599C116 44.6614 103.55 32.0861 88.158 32.0002V32.0004Z" fill="#2F2F2F"/>
</g>
<path d="M83.6751 65L83.7497 78.0089L83.7787 83.1099L83.8193 89.9686L76.5211 78.2064L62.1893 79.1779L68.0881 75.2865L72.4798 72.388L83.6751 65Z" fill="#2F2F2F"/>
<path d="M77.0551 76.3939L81.7162 68.1074L68.2507 77.4297L77.0551 76.3939Z" fill="#FECE00"/>
<defs>
<filter id="filter0_d_41_220" x="2.836" y="97.512" width="113.593" height="29.812" filterUnits="userSpaceOnUse" color-interpolation-filters="sRGB">
<feFlood flood-opacity="0" result="BackgroundImageFix"/>
<feColorMatrix in="SourceAlpha" type="matrix" values="0 0 0 0 0 0 0 0 0 0 0 0 0 0 0 0 0 0 127 0" result="hardAlpha"/>
<feOffset dy="2"/>
<feGaussianBlur stdDeviation="1"/>
<feComposite in2="hardAlpha" operator="out"/>
<feColorMatrix type="matrix" values="0 0 0 0 0 0 0 0 0 0 0 0 0 0 0 0 0 0 0.25 0"/>
<feBlend mode="normal" in2="BackgroundImageFix" result="effect1_dropShadow_41_220"/>
<feBlend mode="normal" in="SourceGraphic" in2="effect1_dropShadow_41_220" result="shape"/>
</filter>
<filter id="filter1_d_41_220" x="0.959999" y="31.6801" width="59.92" height="60.7999" filterUnits="userSpaceOnUse" color-interpolation-filters="sRGB">
<feFlood flood-opacity="0" result="BackgroundImageFix"/>
<feColorMatrix in="SourceAlpha" type="matrix" values="0 0 0 0 0 0 0 0 0 0 0 0 0 0 0 0 0 0 127 0" result="hardAlpha"/>
<feOffset dy="2"/>
<feGaussianBlur stdDeviation="1"/>
<feComposite in2="hardAlpha" operator="out"/>
<feColorMatrix type="matrix" values="0 0 0 0 0 0 0 0 0 0 0 0 0 0 0 0 0 0 0.25 0"/>
<feBlend mode="normal" in2="BackgroundImageFix" result="effect1_dropShadow_41_220"/>
<feBlend mode="normal" in="SourceGraphic" in2="effect1_dropShadow_41_220" result="shape"/>
</filter>
<filter id="filter2_d_41_220" x="58" y="32" width="60" height="60" filterUnits="userSpaceOnUse" color-interpolation-filters="sRGB">
<feFlood flood-opacity="0" result="BackgroundImageFix"/>
<feColorMatrix in="SourceAlpha" type="matrix" values="0 0 0 0 0 0 0 0 0 0 0 0 0 0 0 0 0 0 127 0" result="hardAlpha"/>
<feOffset dy="2"/>
<feGaussianBlur stdDeviation="1"/>
<feComposite in2="hardAlpha" operator="out"/>
<feColorMatrix type="matrix" values="0 0 0 0 0 0 0 0 0 0 0 0 0 0 0 0 0 0 0.25 0"/>
<feBlend mode="normal" in2="BackgroundImageFix" result="effect1_dropShadow_41_220"/>
<feBlend mode="normal" in="SourceGraphic" in2="effect1_dropShadow_41_220" result="shape"/>
</filter>
</defs>
</svg>
